<svg viewBox="0 0 64 64" xmlns="http://www.w3.org/2000/svg"><g fill="#e08828"><path d="m39.6 51.3h2.4v9.2h-2.4z"/><path d="m41.5 60.6c0-.5 1.7-1.5 3.7-1.5 2.1 0 3.7 1 3.7 1.5s-1.7.4-3.7.4c-2.1 0-3.7.1-3.7-.4"/><path d="m37.1 60.6c0-.5 1.7-1.5 3.7-1.5 2.1 0 3.7 1 3.7 1.5s-1.7.4-3.7.4c-2.1 0-3.7.1-3.7-.4"/><path d="m32.6 60.6c0-.5 1.7-1.5 3.7-1.5s3.7 1 3.7 1.5-1.7.4-3.7.4-3.7.1-3.7-.4m-10.6-9.3h2.4v9.2h-2.4z"/><path d="m22.5 60.6c0-.5-1.7-1.5-3.7-1.5-2.1 0-3.7 1-3.7 1.5s1.7.4 3.7.4c2.1 0 3.7.1 3.7-.4"/><path d="m27 60.6c0-.5-1.7-1.5-3.7-1.5-2.1 0-3.7 1-3.7 1.5s1.7.4 3.7.4 3.7.1 3.7-.4"/><path d="m31.4 60.6c0-.5-1.7-1.5-3.7-1.5s-3.7 1-3.7 1.5 1.7.4 3.7.4 3.7.1 3.7-.4"/></g><g fill="#ffbf3e"><path d="m15.5 39.3s-16-6.5-12.8-8.1c8.9-4.3 12.8 8.1 12.8 8.1"/><path d="m15.5 39.3s-13.6-11.5-10.4-13.1c8.2-3.9 10.4 13.1 10.4 13.1"/><path d="m15.5 39.3s-17.6-.6-12.6-3.1c11.4-5.5 12.6 3.1 12.6 3.1m33 0s16-6.5 12.8-8.1c-8.9-4.3-12.8 8.1-12.8 8.1"/><path d="m48.5 39.3s13.6-11.5 10.4-13.1c-8.2-3.9-10.4 13.1-10.4 13.1"/><path d="m48.5 39.3s17.6-.6 12.6-3.1c-11.4-5.5-12.6 3.1-12.6 3.1"/></g><g fill="#ffd93b"><path d="m34 24.7c2.4 4.2-10.9 4.4-11.7-5.9-.9-10.3 5.7-15.8 5.7-15.8s-.5 10.4 6 21.7z"/><path d="m32.7 21.7c-1.8 4.6-10-6.3-2.6-13.3s15.6-4.8 15.6-4.8-8.2 5.9-13 18.1"/><path d="m26.2 31.4c1.8 4.6 10-6.3 2.6-13.3s-15.6-4.8-15.6-4.8 8.3 5.9 13 18.1"/><path d="m50.8 39.9c0 11.2-8.4 13-18.8 13s-18.8-1.7-18.8-13c0-23 9.2-27.7 18.8-27.7 9.6-.1 18.8 4.6 18.8 27.7"/></g><path d="m28.2 37h7.6c0 2.3-1.9 3.9-3.8 3.9s-3.8-1.6-3.8-3.9" fill="#e08828"/><path d="m35.8 37s-2.4 1.1-3.8 1.1-3.8-1.1-3.8-1.1c0-2.9 1.7-5.2 3.8-5.2 2.1-.1 3.8 2.3 3.8 5.2" fill="#f29a2e"/><path d="m44.7 26.4c-.4-.7-.8-1.5-1.4-2.1s-1.3-1.1-2.2-1.3c-.8-.2-1.8-.1-2.5.4-.7.4-1.3 1.1-1.8 1.8.7-.5 1.3-.9 2-1.2s1.4-.3 2.1-.2c.7.2 1.3.6 1.9 1 .8.4 1.3 1 1.9 1.6m-25.4 0c.4-.7.8-1.5 1.4-2.1s1.3-1.1 2.1-1.3c.9-.2 1.8-.1 2.5.4.7.4 1.3 1.1 1.8 1.8-.7-.5-1.3-.9-2-1.2s-1.4-.3-2.1-.2c-.7.2-1.3.6-1.9 1-.7.4-1.2 1-1.8 1.6" fill="#bc9342"/><path d="m20.9 32.2c0-1.4 1-2.8 2.3-2.8s2.3 1.5 2.3 2.8-1 2-2.3 2c-1.3-.1-2.3-.7-2.3-2m17.6 0c0-1.4 1-2.8 2.3-2.8s2.3 1.5 2.3 2.8-1 2-2.3 2c-1.2-.1-2.3-.7-2.3-2" fill="#3e4347"/><path d="m44.1 51.1c0-.3.1-.6.1-.9 0-4.3-5.4-7.8-12.1-7.8s-12.1 3.5-12.1 7.8c0 .3 0 .6.1.9 3.3 1.4 7.5 1.7 12.1 1.7s8.6-.3 11.9-1.7" fill="#ffea92"/></svg>