<svg viewBox="0 0 64 64" xmlns="http://www.w3.org/2000/svg"><g transform="matrix(-1 0 0 1 64 0)"><path d="m52.4 57.6c-1.5-1.5-.9-3.4.1-4.4s2.9-1.6 4.4-.1 2.1 4.5 1 5.5c-1 1.1-4 .5-5.5-1m3.5-14.2c-1.5-1.5-.9-3.4.1-4.4s2.9-1.6 4.4-.1 2.1 4.5 1 5.6c-1 1-4 .4-5.5-1.1" fill="#3e4347"/><path d="m12.9 57.6c-4.6 0-10.9-1.1-10.9-5.9 0-5.3 5.2-10.3 10.9-10.3z" fill="#5b7f32"/><path d="m23.9 47.9c0 9-6.3 9.8-10.9 9.8s-9.2-2.1-9.2-5.9c0-4.5 4.6-10.3 9.2-10.3 4.5 0 10.9 1.9 10.9 6.4" fill="#94d82a"/><path d="m21.2 57.6c-15.9 0-16-19.1.3-19.1z" fill="#5b7f32"/><path d="m31.1 46.1c0 10.6-5.6 11.6-10 11.6-14.4 0-14-19.1.3-19.1 4.5-.1 9.7 2.2 9.7 7.5" fill="#94d82a"/><path d="m30.8 57.6c-17.1 0-16.4-20 0-20z" fill="#5b7f32"/><path d="m42.4 45.5c0 11.1-6.5 12.1-11.6 12.1-14.1 0-14.1-20 0-20 5 0 11.6 2.4 11.6 7.9" fill="#94d82a"/><path d="m44.7 57.6c-21.4 0-19.4-23-1.5-23z" fill="#5b7f32"/><path d="m57.7 45.2c0 11.1-7.1 12.5-13 12.5-18 0-18-23.4 0-23.4 5.9-.1 13 5.3 13 10.9" fill="#94d82a"/><path d="m57.4 43.3s-3.6 4.4-9.1 5.1c-5.6.7-20-3.2-11-15.7z" fill="#5b7f32"/><path d="m59.7 38.2c0 5.7-6.6 8.2-12.1 8.2s-12.1-2.5-12.1-8.2 6.6-12.5 12.1-12.5c5.6 0 12.1 6.8 12.1 12.5" fill="#94d82a"/><path d="m31.9 54.8c2.1-2.1 4.2-1.8 5.3-.7 1 1 1.4 3.2-.7 5.3s-5.8 3.3-6.9 2.3c-1.1-1.1.2-4.8 2.3-6.9m2.1-21.2c2.1 2.1 1.8 4.2.7 5.3-1 1-3.2 1.4-5.3-.7s-3.3-5.8-2.3-6.8c1.1-1.1 4.8.1 6.9 2.2m-13.2 21.7c1.8-1.8 3.6-1.5 4.4-.6.9.9 1.2 2.7-.6 4.4-1.8 1.8-4.9 2.8-5.8 1.9-.8-.8.2-4 2-5.7m-8.8.3c1.5-1.5 3-1.3 3.8-.5.7.7 1 2.3-.5 3.8s-4.2 2.4-4.9 1.6c-.8-.7.1-3.4 1.6-4.9" fill="#3e4347"/><path d="m28.4 40-1 1 1 1 .9-1zm-3 6.1-.9 1 .9 1 1-1zm-9.8-5.1-1 1 1 .9 1-.9zm-7.5 4.2-.9.9.9 1 1-1zm-1.6 2.2-1 1 1 1 1-1zm28.1-2.9-1 1 1 1 1-1zm2.5 3.1-1 1 1 .9 1-.9zm17.9-.5-1 1 1 .9.9-.9zm-.7-8-1 .9 1 1 .9-1zm-14-2.8-1 .9 1 1 .9-1zm-15.8 4.2-2 1.9 2 2 1.9-2zm31.7-6.2-1.9 2 1.9 1.9 1.9-1.9zm-41.6 9.4-1.9 2 1.9 1.9 2-1.9z" fill="#5b7f32"/><g fill="#3e4347"><path d="m40.5 10.3-.9-.1c.1-1.9-1.3-4.3-3.8-5l.2-.9c2.7.8 4.7 3.4 4.5 6"/><path d="m37.6 3.4c.8.9.7 2.3-.2 3.1s-2.3.7-3.1-.2-.7-2.3.2-3.1c.9-.9 2.3-.8 3.1.2m11.6 6.4-.1-.9c1.9-.2 3.9-2.2 4.1-4.7l.9.1c-.2 2.7-2.4 5.2-4.9 5.5"/><path d="m55.4 5.6c-.7 1-2.1 1.1-3.1.4-1-.8-1.1-2.1-.4-3.1s2.1-1.1 3.1-.4c.9.7 1.1 2.1.4 3.1"/></g><path d="m55.7 29.7c-2.4 7.5-16.4 7.9-18.3 3z" fill="#5b7f32"/><path d="m59.2 22.4c.5 10.4-20.7 17.5-26.9 5.2-4.7-9.4 2.7-19.2 10.5-20.1 12.8-1.5 16.2 9.9 16.4 14.9z" fill="#94d82a"/><g fill="#3e4347"><path d="m51.3 18.3c0 1.7-.9 3-2 3s-2-1.3-2-3 .9-3 2-3 2 1.4 2 3"/><ellipse cx="37.4" cy="18.3" rx="2" ry="3"/><path d="m43.3 29.3c-2.4 0-4.5-.9-4.5-1.8 0-.1 0-.2.1-.3s.2-.1.4-.1.3.1.6.2c.6.2 1.7.7 3.5.7s2.9-.5 3.4-.7c.3-.1.4-.2.6-.2s.4.1.4.4c0 .9-2.1 1.8-4.5 1.8"/></g><g fill="#ea83a3" opacity=".7"><ellipse cx="53.7" cy="23.8" rx="3.2" ry="2.5"/><ellipse cx="34.4" cy="23.7" rx="2.6" ry="1.8"/></g></g></svg>